<svg width="512" height="512" viewBox="0 0 512 512" fill="none" xmlns="http://www.w3.org/2000/svg">
    <path d="M512 0H0V512H512V0Z" fill="white" />
    <path opacity="0.4"
        d="M382.174 316.248L342.919 224.747C335.77 207.997 325.109 198.497 312.944 197.872C300.904 197.247 289.24 205.622 280.336 221.622L256.506 264.248C251.49 273.248 244.341 278.623 236.565 279.248C228.664 279.998 220.763 275.873 214.367 267.748L211.608 264.248C202.703 253.123 191.666 247.748 180.379 248.873C169.091 249.998 159.434 257.748 153.038 270.373L131.341 313.498C123.565 329.123 124.318 347.248 133.473 361.998C142.628 376.75 158.556 385.62 175.989 385.62H336.021C352.826 385.62 368.504 377.25 377.784 363.248C387.316 349.248 388.821 331.623 382.174 316.248Z"
        fill="#FF4500" />
    <path
        d="M193.414 210.751C216.826 210.751 235.805 191.835 235.805 168.501C235.805 145.167 216.826 126.251 193.414 126.251C170.002 126.251 151.023 145.167 151.023 168.501C151.023 191.835 170.002 210.751 193.414 210.751Z"
        fill="#FF4500" />
</svg>