<svg width="25" height="24" viewBox="0 0 25 24" fill="none" xmlns="http://www.w3.org/2000/svg">
<path d="M22.5 16.74V4.67001C22.5 3.47001 21.52 2.58001 20.33 2.68001H20.27C18.17 2.86001 14.98 3.93001 13.2 5.05001L13.03 5.16001C12.74 5.34001 12.26 5.34001 11.97 5.16001L11.72 5.01001C9.94 3.90001 6.76 2.84001 4.66 2.67001C3.47 2.57001 2.5 3.47001 2.5 4.66001V16.74C2.5 17.7 3.28 18.6 4.24 18.72L4.53 18.76C6.7 19.05 10.05 20.15 11.97 21.2L12.01 21.22C12.28 21.37 12.71 21.37 12.97 21.22C14.89 20.16 18.25 19.05 20.43 18.76L20.76 18.72C21.72 18.6 22.5 17.7 22.5 16.74Z" stroke="#292D32" stroke-width="1.5" stroke-linecap="round" stroke-linejoin="round"/>
<path d="M12.5 5.48999V20.49" stroke="#292D32" stroke-width="1.5" stroke-linecap="round" stroke-linejoin="round"/>
<path d="M8.25 8.48999H6" stroke="#292D32" stroke-width="1.5" stroke-linecap="round" stroke-linejoin="round"/>
<path d="M9 11.49H6" stroke="#A2A2A2" stroke-width="1.5" stroke-linecap="round" stroke-linejoin="round"/>
</svg>
