<svg width="25" height="24" viewBox="0 0 25 24" fill="none" xmlns="http://www.w3.org/2000/svg">
<path d="M20.6786 18.2238L20.6786 18.2238L20.676 18.2241L20.366 18.2641L20.3635 18.2644C18.6692 18.4917 16.3162 19.1866 14.4274 19.9786C14.116 20.1073 13.75 19.8731 13.75 19.51V5.59999C13.75 5.42227 13.8517 5.24619 14.0288 5.1493C15.8004 4.19107 18.4898 3.33812 20.2916 3.17999H20.33C21.2539 3.17999 22 3.92613 22 4.84999V16.74C22 17.4553 21.4004 18.1345 20.6786 18.2238Z" fill="#FF4500" stroke="#FF4500"/>
<path d="M4.28093 18.4719L4.28223 18.472L4.59223 18.512L4.59347 18.5122C6.2606 18.7359 8.59197 19.4232 10.4663 20.2092M4.28093 18.4719L10.4669 20.2094C10.4667 20.2094 10.4665 20.2093 10.4663 20.2092M4.28093 18.4719C3.43504 18.3672 2.74023 17.5826 2.74023 16.74V4.84999C2.74023 3.78806 3.59831 2.92999 4.66023 2.92999H4.71953C6.56034 3.08906 9.2901 3.95555 11.0909 4.92968M4.28093 18.4719L11.0909 4.92968M10.4663 20.2092C10.9471 20.4087 11.4902 20.0466 11.4902 19.51V5.59999C11.4902 5.31297 11.3415 5.06656 11.0909 4.92968M10.4663 20.2092L11.0909 4.92968M7.75023 7.48999H5.50023C4.95216 7.48999 4.50023 7.94192 4.50023 8.48999C4.50023 9.05023 4.95434 9.48999 5.50023 9.48999H7.75023C8.29613 9.48999 8.75023 9.05023 8.75023 8.48999C8.75023 7.94192 8.29831 7.48999 7.75023 7.48999ZM5.50023 12.49H8.50023C9.04613 12.49 9.50023 12.0502 9.50023 11.49C9.50023 10.9419 9.04831 10.49 8.50023 10.49H5.50023C4.95216 10.49 4.50023 10.9419 4.50023 11.49C4.50023 12.0502 4.95434 12.49 5.50023 12.49Z" fill="#FF4500" stroke="#FF4500" stroke-width="0.5"/>
</svg>
