<svg width="16" height="16" viewBox="0 0 16 16" fill="none" xmlns="http://www.w3.org/2000/svg">
<g clip-path="url(#clip0_843_2)">
<path d="M6.82376 2.4925V1.94875C6.82376 1.94875 7.59626 0.511248 7.64376 0.474998C7.66876 0.456248 8.62126 0.462498 8.63751 0.472498C8.67376 0.492498 9.45251 1.90875 9.45251 1.9425C9.45251 1.97625 9.44251 2.4675 9.44251 2.4675L6.82376 2.4925Z" fill="#B0B0B0"/>
<path d="M2.63625 7.21L2.24 7.20375C2.24 7.20375 2.22 6.72875 2.19375 6.64875C2.1675 6.57 2.12125 6.50375 1.93 6.4775C1.73875 6.45125 1.15125 6.4775 0.946249 6.4775C0.827499 6.4775 0.509999 6.68875 0.491249 7.03875C0.464999 7.5075 0.728749 7.745 1.00625 7.75125L2.175 7.7775C2.175 7.7775 2.64375 7.67875 2.64375 7.6525C2.6425 7.62625 2.63625 7.21 2.63625 7.21ZM13.3825 7.25H13.7912C13.7912 7.25 13.7975 7 13.7975 6.88C13.7975 6.715 13.9425 6.51 14.18 6.4975C14.4175 6.48375 14.86 6.51125 15.0187 6.52375C15.1775 6.5375 15.5337 6.675 15.5462 7.13125C15.5562 7.48125 15.3875 7.785 15.0375 7.81125C14.6875 7.8375 13.73 7.84375 13.73 7.84375L13.3212 7.6325L13.3825 7.25Z" fill="#444E47"/>
<path d="M2.38251 12.6338L1.80126 12.9075C1.80126 12.9075 1.74001 14.7475 1.74501 14.9713C1.74876 15.1113 1.81251 15.475 2.65126 15.4863C3.51251 15.4975 3.55751 15.1513 3.55751 15.0613V13.73L2.38251 12.6338ZM12.21 13.9025C12.1938 14.0988 12.2113 14.9025 12.215 15.0713C12.22 15.2838 12.3088 15.56 13.11 15.5413C14.055 15.5188 14.0663 15.2613 14.0663 15.0488V12.9738L12.21 13.9025Z" fill="#4E433D"/>
<path d="M1.81125 12.6438C1.81125 12.6438 1.54375 11.9088 1.5975 10.2913C1.65125 8.67375 1.87875 8.08625 1.905 7.9925C1.93125 7.89875 2.2525 7.67125 2.2925 7.605C2.3325 7.53875 3.7225 4.41 3.83 4.22375C3.9375 4.03625 4.07 3.93 4.27125 3.8625C4.47125 3.79625 5.70125 3.435 8.1475 3.46125C10.5937 3.4875 11.735 3.77625 11.885 3.85375C12.1075 3.96875 12.2162 4.07125 12.3637 4.285C12.5112 4.49875 13.6012 7.4925 13.6812 7.57375C13.7612 7.65375 14.1625 7.9525 14.1887 8.1C14.2075 8.2 14.3887 9.3025 14.3762 10.305C14.3625 11.3075 14.2562 12.2163 14.2562 12.2163L7.8675 12.7638L1.81125 12.6438Z" fill="#FFD61C"/>
<path d="M1.645 11.8275C1.645 11.8275 1.5975 12.7712 1.82 13.2187C2.04375 13.665 2.35125 14.0562 3.92625 14.0812C5.50125 14.1062 6.79125 14.1187 7.59625 14.1187C8.40125 14.1187 12.5938 14.0675 12.9038 14.0437C13.5738 13.9937 14.045 13.4737 14.1938 12.8287C14.3425 12.1837 14.2563 11.8862 14.2563 11.8862C14.2563 11.8862 13.3012 12.1587 12.2225 12.1962C11.1437 12.2337 9.4575 12.2712 7.78375 12.2587C6.11 12.2462 4.03 12.2637 3.46875 12.2212C2.3275 12.1337 1.645 11.8275 1.645 11.8275Z" fill="#FFA828"/>
<path d="M3.85375 13.1375C3.85125 13.4187 4.13125 13.5625 4.62 13.585C5.10875 13.6075 6.54375 13.6112 7.7725 13.6212C9.00125 13.6312 11.4512 13.615 11.7237 13.5612C11.9962 13.5075 12.1675 13.255 12.15 13.1237C12.1325 12.9925 12.01 13.0187 11.41 13.0137C11.12 13.0112 9.45125 13.0325 7.825 13.03C6.0775 13.0275 4.37125 13.0012 4.25875 13C4.04375 12.9987 3.855 12.9975 3.85375 13.1375ZM5.505 11.2587C5.685 11.3537 6.63125 11.315 7.9825 11.325C9.33375 11.335 10.2162 11.3537 10.4125 11.2875C10.61 11.2212 10.9375 10.49 10.9187 10.0675C10.9 9.645 9.595 9.4575 8.01 9.4675C6.425 9.4775 5.01625 9.515 5.035 10.0675C5.05375 10.6112 5.345 11.175 5.505 11.2587Z" fill="#444E47"/>
<path d="M14.2537 9.935C14.1887 9.90625 11.85 9.945 11.655 9.95375C11.46 9.9625 11.3387 10.16 11.3025 10.32C11.265 10.48 11.1537 10.845 11.1262 10.9488C11.0987 11.0525 11.15 11.1625 11.4187 11.1725C11.8125 11.1875 12.3212 11.21 12.9312 11.2138C13.5812 11.2188 14.2362 11.1825 14.2362 11.1825C14.2362 11.1825 14.2787 10.7663 14.2787 10.5413C14.2787 10.3163 14.2537 9.935 14.2537 9.935ZM1.76998 9.985C1.76998 9.985 1.65998 10.2763 1.66998 10.6413C1.67873 10.94 1.70373 11.165 1.76998 11.1725C1.83623 11.1813 2.31873 11.2388 3.19873 11.255C4.07873 11.2713 4.94248 11.2388 4.95998 11.1963C4.97748 11.1538 4.85998 10.7563 4.72748 10.49C4.59498 10.2238 4.49498 9.975 4.11248 9.95875C3.72998 9.94375 1.79498 9.9525 1.76998 9.985Z" fill="#FFEACA"/>
<path d="M3.165 9.9325C2.67625 9.94875 2.48125 10.2338 2.49 10.665C2.49875 11.0963 2.75875 11.275 3.20625 11.275C3.64625 11.275 3.89 11.055 3.87375 10.6075C3.86 10.2338 3.65375 9.91625 3.165 9.9325ZM12.8425 9.91C12.4525 9.91 12.1462 10.1213 12.1462 10.5825C12.1462 11.0438 12.5112 11.215 12.835 11.215C13.1587 11.215 13.54 11.0713 13.5475 10.5825C13.555 10.1188 13.2312 9.91 12.8425 9.91Z" fill="white"/>
<path d="M4.56874 4.53625C4.32749 4.555 4.01124 4.65 3.82624 5.03125C3.60874 5.47875 2.86624 7.39375 2.79124 7.66C2.71624 7.92625 2.79124 8.08375 3.09874 8.05875C3.40624 8.03375 5.52749 7.89625 7.95624 7.89625C10.385 7.89625 12.56 7.935 12.8412 7.9475C13.1225 7.96 13.2125 7.73 13.1487 7.5C13.0862 7.2725 12.3612 5.31 12.2212 4.99C12.0812 4.67 11.735 4.555 11.4537 4.5425C11.1725 4.53 9.48874 4.3875 8.08249 4.3875C6.67624 4.3875 4.85124 4.515 4.56874 4.53625Z" fill="#444E47"/>
<path d="M3.51501 6.9425C3.51501 6.9425 4.03001 5.555 4.08376 5.43375C4.13626 5.3125 4.21251 5.0475 4.57626 5.00875C4.94001 4.97 5.84626 4.8375 8.01126 4.82625C10.1763 4.815 11.1275 4.9525 11.31 4.96375C11.4938 4.975 11.8013 5.095 11.9613 5.47375C12.1213 5.85125 12.4663 6.79625 12.4663 6.79625C12.4663 6.79625 10.1988 7.025 9.95751 7.025C9.71751 7.025 4.25251 7.14 4.25251 7.14L3.51501 6.9425Z" fill="#AFE3FB"/>
<path d="M3.51499 6.9425C3.51499 6.9425 3.80624 6.8125 4.21374 6.72375C4.59999 6.63875 4.97624 6.5825 4.97624 6.5825C4.97624 6.5825 4.99249 6.00375 5.00124 5.82875C5.00999 5.6525 5.19374 5.5025 5.41249 5.49375C5.59749 5.48625 6.13374 5.49375 6.29249 5.5025C6.45124 5.51125 6.56124 5.67875 6.55249 5.91375C6.54374 6.14875 6.53624 6.525 6.53624 6.525C6.53624 6.525 7.46624 6.49125 8.08624 6.485C8.82124 6.4775 9.72999 6.5 9.72999 6.5C9.72999 6.5 9.73874 6.005 9.74624 5.805C9.75499 5.60375 9.85499 5.51125 10.015 5.50375C10.1737 5.495 10.8275 5.50375 11.0037 5.5125C11.18 5.52125 11.2637 5.63 11.2725 5.8475C11.2812 6.065 11.2887 6.535 11.2887 6.535C11.2887 6.535 11.615 6.59375 11.9262 6.66875C12.2137 6.73875 12.4687 6.80125 12.4687 6.80125C12.4687 6.80125 12.5462 7.0125 12.5712 7.105C12.5962 7.1975 12.5287 7.2725 12.2862 7.2725C12.0437 7.2725 9.35249 7.23875 8.07124 7.2475C6.78999 7.25625 3.86374 7.34 3.68749 7.3475C3.51124 7.355 3.42749 7.22125 3.44499 7.13C3.46249 7.03875 3.51499 6.9425 3.51499 6.9425Z" fill="#96C8EB"/>
<path d="M7.12124 1.925C7.10249 1.93625 6.36249 2.7625 6.36249 2.7625C6.36249 2.7625 6.35624 3.715 6.36874 3.73375C6.38124 3.7525 9.78499 3.7525 9.80999 3.74625C9.83499 3.74 9.82249 2.6475 9.82249 2.6475C9.82249 2.6475 9.13624 1.91875 9.11874 1.9075C9.09874 1.895 7.15124 1.9075 7.12124 1.925Z" fill="#E1E1E1"/>
<path d="M6.82001 2.4525H7.35001V2.99875H6.82001V2.4525Z" fill="#4A4542"/>
<path d="M7.3475 2.9925H7.8775V3.53875H7.3475V2.9925Z" fill="#4A4542"/>
<path d="M7.85751 2.4475H8.38751V2.99375H7.85751V2.4475Z" fill="#4A4542"/>
<path d="M8.38501 2.9925H8.91501V3.53875H8.38501V2.9925Z" fill="#4A4542"/>
<path d="M8.9075 2.465H9.4375V3.01125H8.9075V2.465Z" fill="#4A4542"/>
</g>
<defs>
<clipPath id="clip0_843_2">
<rect width="16" height="16" fill="white"/>
</clipPath>
</defs>
</svg>
