<svg width="25" height="24" viewBox="0 0 25 24" fill="none" xmlns="http://www.w3.org/2000/svg">
<path d="M11.5108 21.45V19.989C9.42746 19.7937 7.70746 19.0177 6.35079 17.661C4.99346 16.3037 4.21746 14.5833 4.02279 12.5H2.56079V11.5H4.02279C4.21746 9.41667 4.99346 7.69667 6.35079 6.34C7.70812 4.98334 9.42812 4.20734 11.5108 4.012V2.55H12.5108V4.012C14.5941 4.20667 16.3141 4.98267 17.6708 6.34C19.0275 7.69734 19.8038 9.41734 19.9998 11.5H21.4608V12.5H19.9998C19.8045 14.5833 19.0285 16.3033 17.6718 17.66C16.3145 19.0173 14.5941 19.7937 12.5108 19.989V21.45H11.5108ZM12.0108 19C13.9441 19 15.5941 18.3167 16.9608 16.95C18.3275 15.5833 19.0108 13.9333 19.0108 12C19.0108 10.0667 18.3275 8.41667 16.9608 7.05C15.5941 5.68334 13.9441 5 12.0108 5C10.0775 5 8.42746 5.68334 7.06079 7.05C5.69412 8.41667 5.01079 10.0667 5.01079 12C5.01079 13.9333 5.69412 15.5833 7.06079 16.95C8.42746 18.3167 10.0775 19 12.0108 19ZM12.0108 15C11.1861 15 10.4798 14.7063 9.89179 14.119C9.30379 13.5317 9.01012 12.8253 9.01079 12C9.01146 11.1747 9.30512 10.4683 9.89179 9.881C10.4785 9.29367 11.1848 9 12.0108 9C12.8368 9 13.5431 9.29367 14.1298 9.881C14.7165 10.4683 15.0101 11.1747 15.0108 12C15.0115 12.8253 14.7178 13.5317 14.1298 14.119C13.5418 14.7063 12.8355 15 12.0108 15Z" fill="#637381"/>
</svg>
