<svg width="16" height="15" viewBox="0 0 16 15" fill="none" xmlns="http://www.w3.org/2000/svg">
<path d="M12.9567 0C13.675 0 14.3639 0.285341 14.8718 0.793252C15.3797 1.30116 15.665 1.99004 15.665 2.70833V12.2917C15.665 13.01 15.3797 13.6988 14.8718 14.2067C14.3639 14.7147 13.675 15 12.9567 15H3.37337C2.65508 15 1.9662 14.7147 1.45829 14.2067C0.95038 13.6988 0.665039 13.01 0.665039 12.2917V2.70833C0.665039 1.99004 0.95038 1.30116 1.45829 0.793252C1.9662 0.285341 2.65508 0 3.37337 0H12.9567ZM14.415 4.58333H1.91504V12.2917C1.91504 13.0967 2.56837 13.75 3.37337 13.75H12.9567C13.3435 13.75 13.7144 13.5964 13.9879 13.3229C14.2614 13.0494 14.415 12.6784 14.415 12.2917V4.58333ZM4.62337 9.58333C4.89964 9.58333 5.16459 9.69308 5.35994 9.88843C5.55529 10.0838 5.66504 10.3487 5.66504 10.625C5.66504 10.9013 5.55529 11.1662 5.35994 11.3616C5.16459 11.5569 4.89964 11.6667 4.62337 11.6667C4.34711 11.6667 4.08215 11.5569 3.8868 11.3616C3.69145 11.1662 3.58171 10.9013 3.58171 10.625C3.58171 10.3487 3.69145 10.0838 3.8868 9.88843C4.08215 9.69308 4.34711 9.58333 4.62337 9.58333ZM8.16504 9.58333C8.44131 9.58333 8.70626 9.69308 8.90161 9.88843C9.09696 10.0838 9.20671 10.3487 9.20671 10.625C9.20671 10.9013 9.09696 11.1662 8.90161 11.3616C8.70626 11.5569 8.44131 11.6667 8.16504 11.6667C7.88877 11.6667 7.62382 11.5569 7.42847 11.3616C7.23312 11.1662 7.12337 10.9013 7.12337 10.625C7.12337 10.3487 7.23312 10.0838 7.42847 9.88843C7.62382 9.69308 7.88877 9.58333 8.16504 9.58333ZM4.62337 6.25C4.89964 6.25 5.16459 6.35975 5.35994 6.5551C5.55529 6.75045 5.66504 7.0154 5.66504 7.29167C5.66504 7.56793 5.55529 7.83289 5.35994 8.02824C5.16459 8.22359 4.89964 8.33333 4.62337 8.33333C4.34711 8.33333 4.08215 8.22359 3.8868 8.02824C3.69145 7.83289 3.58171 7.56793 3.58171 7.29167C3.58171 7.0154 3.69145 6.75045 3.8868 6.5551C4.08215 6.35975 4.34711 6.25 4.62337 6.25ZM8.16504 6.25C8.44131 6.25 8.70626 6.35975 8.90161 6.5551C9.09696 6.75045 9.20671 7.0154 9.20671 7.29167C9.20671 7.56793 9.09696 7.83289 8.90161 8.02824C8.70626 8.22359 8.44131 8.33333 8.16504 8.33333C7.88877 8.33333 7.62382 8.22359 7.42847 8.02824C7.23312 7.83289 7.12337 7.56793 7.12337 7.29167C7.12337 7.0154 7.23312 6.75045 7.42847 6.5551C7.62382 6.35975 7.88877 6.25 8.16504 6.25ZM11.7067 6.25C11.983 6.25 12.2479 6.35975 12.4433 6.5551C12.6386 6.75045 12.7484 7.0154 12.7484 7.29167C12.7484 7.56793 12.6386 7.83289 12.4433 8.02824C12.2479 8.22359 11.983 8.33333 11.7067 8.33333C11.4304 8.33333 11.1655 8.22359 10.9701 8.02824C10.7748 7.83289 10.665 7.56793 10.665 7.29167C10.665 7.0154 10.7748 6.75045 10.9701 6.5551C11.1655 6.35975 11.4304 6.25 11.7067 6.25ZM12.9567 1.25H3.37337C2.9866 1.25 2.61567 1.40365 2.34218 1.67714C2.06868 1.95063 1.91504 2.32156 1.91504 2.70833V3.33333H14.415V2.70833C14.415 2.32156 14.2614 1.95063 13.9879 1.67714C13.7144 1.40365 13.3435 1.25 12.9567 1.25Z" fill="#212B36"/>
</svg>
