<svg width="25" height="25" viewBox="0 0 25 25" fill="none" xmlns="http://www.w3.org/2000/svg">
<path d="M4.83496 5.54834C4.83496 5.28312 4.94032 5.02877 5.12785 4.84123C5.31539 4.6537 5.56974 4.54834 5.83496 4.54834H9.83496C10.1002 4.54834 10.3545 4.6537 10.5421 4.84123C10.7296 5.02877 10.835 5.28312 10.835 5.54834V10.5483C10.835 10.8136 10.7296 11.0679 10.5421 11.2554C10.3545 11.443 10.1002 11.5483 9.83496 11.5483H5.83496C5.56974 11.5483 5.31539 11.443 5.12785 11.2554C4.94032 11.0679 4.83496 10.8136 4.83496 10.5483V5.54834ZM14.835 5.54834C14.835 5.28312 14.9403 5.02877 15.1279 4.84123C15.3154 4.6537 15.5697 4.54834 15.835 4.54834H19.835C20.1002 4.54834 20.3545 4.6537 20.5421 4.84123C20.7296 5.02877 20.835 5.28312 20.835 5.54834V7.54834C20.835 7.81356 20.7296 8.06791 20.5421 8.25545C20.3545 8.44298 20.1002 8.54834 19.835 8.54834H15.835C15.5697 8.54834 15.3154 8.44298 15.1279 8.25545C14.9403 8.06791 14.835 7.81356 14.835 7.54834V5.54834ZM4.83496 16.5483C4.83496 16.2831 4.94032 16.0288 5.12785 15.8412C5.31539 15.6537 5.56974 15.5483 5.83496 15.5483H9.83496C10.1002 15.5483 10.3545 15.6537 10.5421 15.8412C10.7296 16.0288 10.835 16.2831 10.835 16.5483V19.5483C10.835 19.8136 10.7296 20.0679 10.5421 20.2554C10.3545 20.443 10.1002 20.5483 9.83496 20.5483H5.83496C5.56974 20.5483 5.31539 20.443 5.12785 20.2554C4.94032 20.0679 4.83496 19.8136 4.83496 19.5483V16.5483ZM14.835 13.5483C14.835 13.2831 14.9403 13.0288 15.1279 12.8412C15.3154 12.6537 15.5697 12.5483 15.835 12.5483H19.835C20.1002 12.5483 20.3545 12.6537 20.5421 12.8412C20.7296 13.0288 20.835 13.2831 20.835 13.5483V19.5483C20.835 19.8136 20.7296 20.0679 20.5421 20.2554C20.3545 20.443 20.1002 20.5483 19.835 20.5483H15.835C15.5697 20.5483 15.3154 20.443 15.1279 20.2554C14.9403 20.0679 14.835 19.8136 14.835 19.5483V13.5483Z" stroke="#FF4500" stroke-width="2"/>
</svg>
