<svg width="19" height="18" viewBox="0 0 19 18" fill="none" xmlns="http://www.w3.org/2000/svg">
<g clip-path="url(#clip0_791_2468)">
<path d="M9.44238 9.00014C10.0357 9.00014 10.6157 8.82419 11.1091 8.49455C11.6024 8.1649 11.987 7.69637 12.214 7.14819C12.4411 6.60001 12.5005 5.99681 12.3847 5.41487C12.269 4.83292 11.9833 4.29838 11.5637 3.87882C11.1441 3.45926 10.6096 3.17354 10.0277 3.05778C9.44571 2.94203 8.84251 3.00144 8.29433 3.2285C7.74615 3.45556 7.27762 3.84008 6.94798 4.33343C6.61833 4.82678 6.44238 5.40679 6.44238 6.00014C6.44238 6.79579 6.75845 7.55885 7.32106 8.12146C7.88367 8.68407 8.64673 9.00014 9.44238 9.00014ZM9.44238 4.50014C9.73906 4.50014 10.0291 4.58811 10.2757 4.75293C10.5224 4.91776 10.7147 5.15202 10.8282 5.42611C10.9417 5.7002 10.9714 6.0018 10.9136 6.29277C10.8557 6.58375 10.7128 6.85102 10.503 7.0608C10.2933 7.27058 10.026 7.41344 9.73502 7.47132C9.44405 7.52919 9.14245 7.49949 8.86836 7.38596C8.59427 7.27243 8.36 7.08017 8.19518 6.83349C8.03036 6.58682 7.94238 6.29681 7.94238 6.00014C7.94238 5.60231 8.10042 5.22078 8.38172 4.93948C8.66303 4.65817 9.04456 4.50014 9.44238 4.50014ZM12.4424 16.5226L18.4424 17.9836V10.1124C18.4422 9.6293 18.2866 9.15908 17.9985 8.7713C17.7104 8.38351 17.3051 8.09875 16.8426 7.95914L15.2676 7.43414C15.3828 6.96633 15.4415 6.48641 15.4424 6.00464C15.4424 4.41334 14.8102 2.88722 13.685 1.762C12.5598 0.63678 11.0337 0.00463867 9.44238 0.00463867C7.85108 0.00463867 6.32496 0.63678 5.19974 1.762C4.07453 2.88722 3.44238 4.41334 3.44238 6.00464C3.4446 6.30909 3.46967 6.61294 3.51738 6.91364C3.17678 6.77785 2.8081 6.7276 2.44359 6.76727C2.07907 6.80695 1.72983 6.93534 1.42642 7.14121C1.123 7.34709 0.874663 7.62418 0.703117 7.94824C0.531572 8.27231 0.44205 8.63347 0.442384 9.00014V16.3141L6.42963 18.0249L12.4424 16.5226ZM6.26013 2.82314C7.10557 1.9897 8.24609 1.52412 9.43325 1.5278C10.6204 1.53148 11.758 2.00413 12.5983 2.8428C13.4385 3.68146 13.9133 4.81818 13.9192 6.00533C13.9252 7.19249 13.4617 8.33389 12.6299 9.18089L9.44238 12.3001L6.26013 9.18689C5.41628 8.34298 4.94222 7.19844 4.94222 6.00501C4.94222 4.81159 5.41628 3.66704 6.26013 2.82314ZM1.94238 9.00014C1.94144 8.87644 1.97157 8.75448 2.03001 8.64546C2.08846 8.53643 2.17334 8.44383 2.27688 8.37614C2.38519 8.30506 2.50997 8.26303 2.63921 8.2541C2.76846 8.24516 2.89783 8.26963 3.01488 8.32514L4.09038 8.71364C4.37813 9.28346 4.75457 9.80394 5.20563 10.2556L9.44238 14.4001L13.6851 10.2504C14.1023 9.83381 14.4561 9.35824 14.7351 8.83889L16.3979 9.39464C16.5545 9.43943 16.6923 9.534 16.7904 9.66403C16.8885 9.79406 16.9416 9.9525 16.9416 10.1154V16.0771L12.4424 14.9776L6.45738 16.4776L1.94238 15.1846V9.00014Z" fill="#FE0000"/>
</g>
<defs>
<clipPath id="clip0_791_2468">
<rect width="18" height="18" fill="white" transform="translate(0.442383)"/>
</clipPath>
</defs>
</svg>
