<svg width="19" height="16" viewBox="0 0 19 16" fill="none" xmlns="http://www.w3.org/2000/svg">
<path d="M4.60547 4.6665H7.9388" stroke="#FE0000" stroke-width="1.5" stroke-linecap="round" stroke-linejoin="round"/>
<path d="M16.9663 5.5H14.798C13.3105 5.5 12.1055 6.61917 12.1055 8C12.1055 9.38083 13.3113 10.5 14.7971 10.5H16.9663C17.0363 10.5 17.0705 10.5 17.0996 10.4983C17.5496 10.4708 17.908 10.1383 17.9371 9.72083C17.9388 9.69417 17.9388 9.66167 17.9388 9.5975V6.4025C17.9388 6.33833 17.9388 6.30583 17.9371 6.27917C17.9071 5.86167 17.5496 5.52917 17.0996 5.50167C17.0713 5.5 17.0363 5.5 16.9663 5.5Z" stroke="#FE0000" stroke-width="1.5"/>
<path d="M17.0766 5.49992C17.0116 3.93992 16.8033 2.98325 16.1291 2.30992C15.1533 1.33325 13.5816 1.33325 10.4391 1.33325H7.93913C4.79663 1.33325 3.22496 1.33325 2.24913 2.30992C1.27246 3.28575 1.27246 4.85742 1.27246 7.99992C1.27246 11.1424 1.27246 12.7141 2.24913 13.6899C3.22496 14.6666 4.79663 14.6666 7.93913 14.6666H10.4391C13.5816 14.6666 15.1533 14.6666 16.1291 13.6899C16.8033 13.0166 17.0125 12.0599 17.0766 10.4999" stroke="#FE0000" stroke-width="1.5"/>
<path d="M14.5986 8H14.607" stroke="#FE0000" stroke-width="2" stroke-linecap="round" stroke-linejoin="round"/>
</svg>
