<svg width="18" height="17" viewBox="0 0 18 17" fill="none" xmlns="http://www.w3.org/2000/svg">
<path d="M0.699219 8.61136C0.699219 7.11536 1.07322 5.72936 1.81389 4.46069C2.55455 3.19202 3.55922 2.18736 4.82789 1.44669C6.09655 0.706022 7.47522 0.339355 8.96389 0.339355C10.0786 0.339355 11.1492 0.559355 12.1686 0.992022C13.1879 1.42469 14.0606 2.01869 14.8012 2.75202C15.5419 3.48536 16.1286 4.36536 16.5612 5.39202C16.9939 6.41869 17.2139 7.48202 17.2139 8.61136C17.2139 9.72602 16.9939 10.7967 16.5612 11.816C16.1286 12.8354 15.5346 13.7154 14.8012 14.4487C14.0679 15.182 13.1879 15.7687 12.1686 16.2014C11.1492 16.634 10.0859 16.854 8.96389 16.854C7.84189 16.854 6.76389 16.634 5.74455 16.2014C4.72522 15.7687 3.84522 15.1747 3.10455 14.4414C2.36389 13.708 1.78455 12.828 1.34455 11.816C0.904552 10.804 0.699219 9.73336 0.699219 8.61136ZM2.51789 8.61136C2.51789 10.3494 3.14855 11.86 4.41722 13.1434C5.68589 14.412 7.19655 15.0427 8.96389 15.0427C10.1226 15.0427 11.2006 14.7567 12.1832 14.1774C13.1659 13.598 13.9579 12.8207 14.5372 11.8307C15.1166 10.8407 15.4099 9.77002 15.4099 8.61136C15.4099 7.45269 15.1166 6.37469 14.5372 5.38469C13.9579 4.39469 13.1732 3.61002 12.1832 3.03069C11.1932 2.45136 10.1226 2.16536 8.96389 2.16536C7.80522 2.16536 6.72722 2.45136 5.74455 3.03069C4.76189 3.61002 3.96989 4.39469 3.38322 5.38469C2.79655 6.37469 2.51789 7.45269 2.51789 8.61136ZM5.39255 7.10069C5.36797 7.02443 5.35984 6.94382 5.36869 6.86419C5.37753 6.78455 5.40316 6.7077 5.44389 6.63869C5.52455 6.49202 5.64922 6.39669 5.81789 6.34536C5.98655 6.29402 6.14055 6.31602 6.28722 6.39669L8.32589 7.54802V3.72736C8.32589 3.55869 8.38455 3.41202 8.50189 3.29469C8.61922 3.17736 8.76589 3.11869 8.93455 3.11869C9.10322 3.11869 9.24989 3.17736 9.36722 3.29469C9.48455 3.41202 9.54322 3.55869 9.54322 3.72736V8.61869C9.54322 8.78735 9.48455 8.93402 9.36722 9.05136C9.24989 9.16869 9.10322 9.22736 8.93455 9.22736C8.78203 9.2283 8.63498 9.17053 8.52388 9.06602L5.67855 7.47469C5.54095 7.38891 5.43928 7.25596 5.39255 7.10069Z" fill="#FE0000"/>
</svg>
