<svg width="25" height="25" viewBox="0 0 25 25" fill="none" xmlns="http://www.w3.org/2000/svg">
<path d="M22.271 8.13434L18.273 4.11434C17.521 3.35834 16.21 3.35034 15.443 4.10834C15.247 4.30434 15.093 4.54434 15.025 4.73734C14.372 6.09934 13.671 6.95234 12.771 7.46434L12.554 7.56934C11.586 8.05434 10.269 8.54834 7.83496 8.54834C7.56896 8.54834 7.31396 8.60034 7.06896 8.70034C6.5801 8.90581 6.19153 9.2951 5.98696 9.78434C5.78792 10.2732 5.78792 10.8205 5.98696 11.3093C6.09096 11.5583 6.23696 11.7803 6.42196 11.9603L9.65696 15.1953L5.83496 20.5483L11.187 16.7263L14.414 19.9533C14.6 20.1423 14.82 20.2923 15.07 20.3943C15.3123 20.4963 15.5726 20.5488 15.8355 20.5488C16.0984 20.5488 16.3586 20.4963 16.601 20.3943C16.8438 20.2958 17.0645 20.1497 17.25 19.9646C17.4355 19.7794 17.582 19.559 17.681 19.3163C17.784 19.0743 17.836 18.8093 17.836 18.5483C17.836 16.1123 18.33 14.7963 18.814 13.8273C19.31 12.8353 20.183 12.0793 21.568 11.4133C21.839 11.3093 22.078 11.1573 22.279 10.9563C22.6498 10.5798 22.857 10.0722 22.8555 9.54369C22.854 9.01523 22.6439 8.50873 22.271 8.13434ZM17.023 12.9353C16.204 14.5783 15.835 16.3053 15.828 18.5393L7.83496 10.5483C9.97396 10.5483 11.649 10.2133 13.231 9.46434L13.466 9.35934C14.865 8.66034 15.934 7.46634 16.854 5.52534L20.778 9.57634C18.915 10.4693 17.722 11.5363 17.023 12.9353Z" fill="#FF4500"/>
</svg>
