<svg width="199" height="130" viewBox="0 0 199 130" fill="none" xmlns="http://www.w3.org/2000/svg">
<path d="M31.1913 120.181C31.1913 120.181 2.9652 106.738 0.241858 71.0186C-2.48149 35.2994 31.1913 33.3789 31.1913 33.3789C31.1913 33.3789 55.7015 33.0718 77.1041 28.3876C98.5068 23.7034 122.65 6.11187 122.65 6.11187C122.65 6.11187 162.805 -15.9299 182.193 23.7034C201.58 63.3366 181.278 107.732 159.245 116.17C141.096 123.12 94.7778 141.116 31.1913 120.181Z" fill="#FFF6F2"/>
<path d="M172.917 102.922L149.132 45.248C147.393 41.0313 143.284 38.2777 138.722 38.2777H103.949H93.0596H58.2862C53.7243 38.2777 49.6156 41.0313 47.8762 45.248L24.0912 102.922C21.0355 110.336 26.4822 118.476 34.5012 118.476H93.0596H103.949H162.507C170.526 118.476 175.977 110.332 172.917 102.922Z" fill="#FF4500"/>
<path d="M172.917 99.4517L149.132 41.778C147.393 37.5613 143.284 34.8078 138.722 34.8078H103.949H93.0596H58.2862C53.7243 34.8078 49.6156 37.5613 47.8762 41.778L24.0912 99.4517C21.0355 106.866 26.4822 115.006 34.5012 115.006H93.0596H103.949H162.507C170.526 115.011 175.977 106.866 172.917 99.4517Z" fill="#FF7E4E"/>
<path d="M132.218 90.9314C135.772 90.9314 138.653 89.3333 138.653 87.3621C138.653 85.3908 135.772 83.7928 132.218 83.7928C128.664 83.7928 125.783 85.3908 125.783 87.3621C125.783 89.3333 128.664 90.9314 132.218 90.9314Z" fill="#D9D9D9"/>
<mask id="mask0_263_883" style="mask-type:alpha" maskUnits="userSpaceOnUse" x="23" y="34" width="151" height="69">
<path d="M172.917 89.722L149.132 40.7289C147.393 37.1469 143.284 34.8078 138.722 34.8078H103.949H93.0596H58.2862C53.7243 34.8078 49.6156 37.1469 47.8762 40.7289L24.0912 89.722C21.0355 96.0207 26.4822 102.935 34.5012 102.935H93.0596H103.949H162.507C170.526 102.939 175.977 96.0207 172.917 89.722Z" fill="white"/>
</mask>
<g mask="url(#mask0_263_883)">
<path d="M169.844 85.7211H149.18C148.532 85.7211 147.941 85.3424 147.669 84.741C145.792 80.5888 139.767 77.6261 132.421 77.6261C132.373 77.6261 132.326 77.6261 132.283 77.6261L130.367 68.6179C130.138 67.5353 130.936 66.5106 132.007 66.5106H159.555C160.483 66.5106 161.234 65.7355 161.234 64.7776V64.684C161.234 63.7262 160.483 62.951 159.555 62.951H130.509C129.719 62.951 129.037 62.3852 128.869 61.5877L127.518 55.2392C127.289 54.1566 128.088 53.1319 129.158 53.1319H153.837C154.764 53.1319 155.515 52.3568 155.515 51.3989V51.3053C155.515 50.3475 154.764 49.5723 153.837 49.5723H127.665C126.875 49.5723 126.193 49.0065 126.025 48.2091L122.887 33.4448C122.689 32.5092 121.791 31.9167 120.884 32.1216L120.794 32.1439C119.888 32.3489 119.313 33.2755 119.512 34.2111L122.33 47.4695C122.559 48.5521 121.761 49.5768 120.69 49.5768H83.6381C82.5721 49.5768 81.7779 48.5654 81.9937 47.4918L84.7473 33.7433C84.9372 32.8033 84.3502 31.8855 83.4439 31.694L83.3532 31.6761C82.4426 31.4801 81.5535 32.086 81.3679 33.0216L78.3252 48.1957C78.1655 49.0021 77.475 49.5812 76.6808 49.5812H62.8828C62.8656 49.5812 62.8354 49.5812 62.8095 49.5411C62.7836 49.501 62.7922 49.4743 62.8008 49.4565L64.0568 45.9637C64.1085 45.8166 64.1474 45.6607 64.156 45.5003C64.3071 43.0679 62.5419 41.4061 60.6127 41.4061C60.604 41.4061 60.5954 41.4061 60.5824 41.4061H47.3326C46.4046 41.4061 45.6537 42.1813 45.6537 43.1391V43.2327C45.6537 44.1905 46.4046 44.9657 47.3326 44.9657H60.5954C60.6126 44.9702 60.6429 44.9657 60.6688 45.0058C60.6946 45.0459 60.686 45.0727 60.6774 45.0905L59.4258 48.5788C59.374 48.7258 59.3351 48.8818 59.3222 49.0422C59.1668 51.4702 60.9234 53.1408 62.8785 53.1408H75.2609C76.3269 53.1408 77.1211 54.1522 76.9053 55.2259L76.6118 56.6871C76.4521 57.4935 75.7615 58.0727 74.9674 58.0727H42.011C41.0831 58.0727 40.3321 58.8478 40.3321 59.8057V59.8993C40.3321 60.8571 41.0831 61.6323 42.011 61.6323H73.5604C74.6264 61.6323 75.4206 62.6436 75.2048 63.7173L71.0701 84.3445C70.9104 85.1508 70.2199 85.73 69.4258 85.73H28.5756C27.6476 85.73 26.8967 86.5052 26.8967 87.463V87.5566C26.8967 88.5144 27.6476 89.2896 28.5756 89.2896H68.0188C69.0848 89.2896 69.8789 90.3009 69.6631 91.3746L64.6524 116.372C64.4625 117.312 65.0494 118.23 65.9558 118.422L66.0464 118.439C66.9571 118.635 67.8461 118.03 68.0317 117.094L73.3274 90.6663C73.487 89.8599 74.1776 89.2807 74.9717 89.2807H115.654C116.301 89.2807 116.892 89.6594 117.164 90.2608C119.042 94.413 125.067 97.3757 132.412 97.3757C132.559 97.3757 132.706 97.3712 132.853 97.3667L136.702 115.882C136.897 116.818 137.79 117.415 138.701 117.214L138.791 117.196C139.698 116.996 140.276 116.074 140.082 115.134L136.689 98.828C136.495 97.9014 137.061 96.9747 137.958 96.7742C142.671 95.7094 146.275 93.3126 147.652 90.2742C147.928 89.6683 148.519 89.2807 149.167 89.2807H169.831C170.759 89.2807 171.51 88.5055 171.51 87.5477V87.4541C171.528 86.4963 170.772 85.7211 169.844 85.7211ZM82.2225 53.1275H122.184C122.973 53.1275 123.655 53.6933 123.824 54.4908L125.175 60.8393C125.403 61.9219 124.605 62.9465 123.534 62.9465H107.531C103.681 62.9465 100.565 66.1676 100.565 70.1371V83.9836C100.565 84.9414 99.8142 85.7166 98.8862 85.7166H76.3917C75.3256 85.7166 74.5315 84.7053 74.7473 83.6316L80.5824 54.5086C80.7378 53.7022 81.4283 53.1275 82.2225 53.1275ZM115.658 85.7211H105.697C104.769 85.7211 104.018 84.9459 104.018 83.9881V70.1416C104.018 68.1368 105.593 66.5151 107.531 66.5151H125.028C125.818 66.5151 126.5 67.0809 126.668 67.8784L128.416 76.107C128.614 77.0425 128.04 77.9781 127.13 78.1741C122.287 79.2077 118.575 81.6402 117.173 84.732C116.901 85.3335 116.31 85.7211 115.658 85.7211ZM132.421 93.816C126.551 93.816 120.013 91.2231 120.013 87.5031C120.013 83.7831 126.551 81.1902 132.421 81.1902C138.291 81.1902 144.829 83.7831 144.829 87.5031C144.825 91.2231 138.286 93.816 132.421 93.816Z" fill="white"/>
</g>
<path opacity="0.3" d="M98.5032 68.4239C118.886 68.4239 135.409 60.77 135.409 51.3285C135.409 41.887 118.886 34.2331 98.5032 34.2331C78.1209 34.2331 61.5977 41.887 61.5977 51.3285C61.5977 60.77 78.1209 68.4239 98.5032 68.4239Z" fill="white"/>
<path opacity="0.35" d="M98.5025 62.5115C111.837 62.5115 122.646 57.5049 122.646 51.3289C122.646 45.1529 111.837 40.1463 98.5025 40.1463C85.1686 40.1463 74.3593 45.1529 74.3593 51.3289C74.3593 57.5049 85.1686 62.5115 98.5025 62.5115Z" fill="white"/>
<path opacity="0.35" d="M98.502 57.5522C105.92 57.5522 111.933 54.7658 111.933 51.3286C111.933 47.8914 105.92 45.105 98.502 45.105C91.0841 45.105 85.0708 47.8914 85.0708 51.3286C85.0708 54.7658 91.0841 57.5522 98.502 57.5522Z" fill="white"/>
<path d="M98.5037 7.2117C89.0734 7.2117 81.4299 14.8552 81.4299 24.2898C81.4299 28.0188 83.0181 31.4845 84.6539 34.2726L94.1144 50.207C95.1114 51.8772 96.7989 52.7361 98.5037 52.7706C100.208 52.7361 101.896 51.8772 102.893 50.207L112.353 34.2726C113.989 31.4845 115.577 28.0188 115.577 24.2898C115.577 14.8552 107.934 7.2117 98.5037 7.2117ZM98.5037 30.7896C94.7704 30.7896 91.7406 27.7598 91.7406 24.0222C91.7406 20.289 94.7704 17.2592 98.5037 17.2592C102.237 17.2592 105.267 20.289 105.267 24.0222C105.267 27.7598 102.237 30.7896 98.5037 30.7896Z" fill="#E06738"/>
<path d="M181.044 31.1351L184.415 48.9469C184.588 49.8576 185.775 50.0992 186.292 49.331L190.656 42.8485L198.166 40.6819C199.055 40.4229 199.188 39.2188 198.373 38.7743L182.451 30.1122C181.739 29.7237 180.893 30.3409 181.044 31.1351Z" fill="#FFA000"/>
<path d="M138.42 22.3652C141.24 22.3652 143.526 20.0793 143.526 17.2594C143.526 14.4396 141.24 12.1537 138.42 12.1537C135.601 12.1537 133.315 14.4396 133.315 17.2594C133.315 20.0793 135.601 22.3652 138.42 22.3652Z" fill="#FFA000"/>
<path d="M8.68284 92.3858C12.8828 92.3858 16.2875 88.981 16.2875 84.7811C16.2875 80.5812 12.8828 77.1765 8.68284 77.1765C4.48291 77.1765 1.07819 80.5812 1.07819 84.7811C1.07819 88.981 4.48291 92.3858 8.68284 92.3858Z" fill="#FE0000"/>
<path d="M51.3726 12.1183C51.187 11.3846 49.7843 11.0652 47.9026 11.2206C47.5358 11.2508 47.1905 11.0436 47.0437 10.707C46.2885 8.9763 45.3433 7.8887 44.6139 8.07428C43.8802 8.25987 43.5608 9.66253 43.7162 11.5443C43.7464 11.9111 43.5392 12.2564 43.2026 12.4031C41.4719 13.1584 40.3843 14.1036 40.5699 14.833C40.7554 15.5667 42.1581 15.8861 44.0399 15.7307C44.4067 15.7005 44.752 15.9077 44.8987 16.2443C45.654 17.975 46.5992 19.0626 47.3286 18.877C48.058 18.6914 48.3817 17.2888 48.2263 15.407C48.1961 15.0402 48.4033 14.6949 48.7399 14.5482C50.4706 13.7972 51.5582 12.852 51.3726 12.1183Z" fill="#EDB82C"/>
</svg>
